<svg width="248" height="48" viewBox="0 0 248 48" fill="none" xmlns="http://www.w3.org/2000/svg">
<path d="M15.6 7.304C19.152 7.304 22.256 8.008 24.912 9.416C27.568 10.824 29.616 12.808 31.056 15.368C32.528 17.896 33.264 20.824 33.264 24.152C33.264 27.448 32.528 30.376 31.056 32.936C29.616 35.496 27.552 37.48 24.864 38.888C22.208 40.296 19.12 41 15.6 41H2.976V7.304H15.6ZM15.072 33.896C18.176 33.896 20.592 33.048 22.32 31.352C24.048 29.656 24.912 27.256 24.912 24.152C24.912 21.048 24.048 18.632 22.32 16.904C20.592 15.176 18.176 14.312 15.072 14.312H11.184V33.896H15.072ZM64.299 14.216V41H56.091V37.352C55.259 38.536 54.123 39.496 52.683 40.232C51.275 40.936 49.707 41.288 47.979 41.288C45.931 41.288 44.123 40.84 42.555 39.944C40.987 39.016 39.771 37.688 38.907 35.96C38.043 34.232 37.611 32.2 37.611 29.864V14.216H45.771V28.76C45.771 30.552 46.235 31.944 47.163 32.936C48.091 33.928 49.339 34.424 50.907 34.424C52.507 34.424 53.771 33.928 54.699 32.936C55.627 31.944 56.091 30.552 56.091 28.76V14.216H64.299ZM82.3868 41.384C79.7628 41.384 77.3948 40.824 75.2828 39.704C73.2028 38.584 71.5548 36.984 70.3388 34.904C69.1548 32.824 68.5628 30.392 68.5628 27.608C68.5628 24.856 69.1708 22.44 70.3867 20.36C71.6028 18.248 73.2668 16.632 75.3788 15.512C77.4908 14.392 79.8588 13.832 82.4828 13.832C85.1068 13.832 87.4748 14.392 89.5868 15.512C91.6988 16.632 93.3628 18.248 94.5788 20.36C95.7948 22.44 96.4028 24.856 96.4028 27.608C96.4028 30.36 95.7788 32.792 94.5308 34.904C93.3148 36.984 91.6348 38.584 89.4908 39.704C87.3788 40.824 85.0108 41.384 82.3868 41.384ZM82.3868 34.28C83.9548 34.28 85.2828 33.704 86.3708 32.552C87.4908 31.4 88.0508 29.752 88.0508 27.608C88.0508 25.464 87.5068 23.816 86.4188 22.664C85.3628 21.512 84.0508 20.936 82.4828 20.936C80.8828 20.936 79.5548 21.512 78.4988 22.664C77.4428 23.784 76.9148 25.432 76.9148 27.608C76.9148 29.752 77.4268 31.4 78.4508 32.552C79.5068 33.704 80.8188 34.28 82.3868 34.28ZM108.965 34.664H119.717V41H100.757V7.304H108.965V34.664ZM127.76 11.432C126.32 11.432 125.136 11.016 124.208 10.184C123.312 9.32 122.864 8.264 122.864 7.016C122.864 5.736 123.312 4.68 124.208 3.848C125.136 2.984 126.32 2.552 127.76 2.552C129.168 2.552 130.32 2.984 131.216 3.848C132.144 4.68 132.608 5.736 132.608 7.016C132.608 8.264 132.144 9.32 131.216 10.184C130.32 11.016 129.168 11.432 127.76 11.432ZM131.84 14.216V41H123.632V14.216H131.84ZM145.997 18.008C146.765 16.76 147.869 15.752 149.309 14.984C150.749 14.216 152.397 13.832 154.253 13.832C156.461 13.832 158.461 14.392 160.253 15.512C162.045 16.632 163.453 18.232 164.477 20.312C165.533 22.392 166.061 24.808 166.061 27.56C166.061 30.312 165.533 32.744 164.477 34.856C163.453 36.936 162.045 38.552 160.253 39.704C158.461 40.824 156.461 41.384 154.253 41.384C152.365 41.384 150.717 41.016 149.309 40.28C147.901 39.512 146.797 38.504 145.997 37.256V41H137.789V5.48H145.997V18.008ZM157.709 27.56C157.709 25.512 157.133 23.912 155.981 22.76C154.861 21.576 153.469 20.984 151.805 20.984C150.173 20.984 148.781 21.576 147.629 22.76C146.509 23.944 145.949 25.56 145.949 27.608C145.949 29.656 146.509 31.272 147.629 32.456C148.781 33.64 150.173 34.232 151.805 34.232C153.437 34.232 154.829 33.64 155.981 32.456C157.133 31.24 157.709 29.608 157.709 27.56ZM178.575 18.68C179.535 17.208 180.735 16.056 182.175 15.224C183.615 14.36 185.215 13.928 186.975 13.928V22.616H184.719C182.671 22.616 181.135 23.064 180.111 23.96C179.087 24.824 178.575 26.36 178.575 28.568V41H170.367V14.216H178.575V18.68ZM189.266 27.56C189.266 24.808 189.778 22.392 190.802 20.312C191.858 18.232 193.282 16.632 195.074 15.512C196.866 14.392 198.866 13.832 201.074 13.832C202.962 13.832 204.61 14.216 206.018 14.984C207.458 15.752 208.562 16.76 209.33 18.008V14.216H217.538V41H209.33V37.208C208.53 38.456 207.41 39.464 205.97 40.232C204.562 41 202.914 41.384 201.026 41.384C198.85 41.384 196.866 40.824 195.074 39.704C193.282 38.552 191.858 36.936 190.802 34.856C189.778 32.744 189.266 30.312 189.266 27.56ZM209.33 27.608C209.33 25.56 208.754 23.944 207.602 22.76C206.482 21.576 205.106 20.984 203.474 20.984C201.842 20.984 200.45 21.576 199.298 22.76C198.178 23.912 197.618 25.512 197.618 27.56C197.618 29.608 198.178 31.24 199.298 32.456C200.45 33.64 201.842 34.232 203.474 34.232C205.106 34.232 206.482 33.64 207.602 32.456C208.754 31.272 209.33 29.656 209.33 27.608ZM234.372 41.384C232.036 41.384 229.956 40.984 228.132 40.184C226.308 39.384 224.868 38.296 223.812 36.92C222.756 35.512 222.164 33.944 222.036 32.216H230.148C230.244 33.144 230.676 33.896 231.444 34.472C232.212 35.048 233.156 35.336 234.276 35.336C235.3 35.336 236.084 35.144 236.628 34.76C237.204 34.344 237.492 33.816 237.492 33.176C237.492 32.408 237.092 31.848 236.292 31.496C235.492 31.112 234.196 30.696 232.404 30.248C230.484 29.8 228.884 29.336 227.604 28.856C226.324 28.344 225.22 27.56 224.292 26.504C223.364 25.416 222.9 23.96 222.9 22.136C222.9 20.6 223.316 19.208 224.148 17.96C225.012 16.68 226.26 15.672 227.892 14.936C229.556 14.2 231.524 13.832 233.796 13.832C237.156 13.832 239.796 14.664 241.716 16.328C243.668 17.992 244.788 20.2 245.076 22.952H237.492C237.364 22.024 236.948 21.288 236.244 20.744C235.572 20.2 234.676 19.928 233.556 19.928C232.596 19.928 231.86 20.12 231.348 20.504C230.836 20.856 230.58 21.352 230.58 21.992C230.58 22.76 230.98 23.336 231.78 23.72C232.612 24.104 233.892 24.488 235.62 24.872C237.604 25.384 239.22 25.896 240.468 26.408C241.716 26.888 242.804 27.688 243.732 28.808C244.692 29.896 245.188 31.368 245.22 33.224C245.22 34.792 244.772 36.2 243.876 37.448C243.012 38.664 241.748 39.624 240.084 40.328C238.452 41.032 236.548 41.384 234.372 41.384Z" fill="url(#paint0_linear_446_638)"/>
<defs>
<linearGradient id="paint0_linear_446_638" x1="0" y1="0" x2="13.9679" y2="86.0076" gradientUnits="userSpaceOnUse">
<stop offset="0.2" stop-color="#06B6D4"/>
<stop offset="0.8" stop-color="#0E7490"/>
</linearGradient>
</defs>
</svg>
